HIERARCHY
ROOT Hips
{
	OFFSET 0.00000 0.00000 0.00000
	CHANNELS 6 Xposition Yposition Zposition Zrotation Yrotation Xrotation 
	JOINT LHipJoint
	{
		OFFSET 0 0 0
		CHANNELS 3 Zrotation Yrotation Xrotation
		JOINT LeftHip
		{
			OFFSET 1.48831 -1.59570 0.95625
			CHANNELS 3 Zrotation Yrotation Xrotation
			JOINT LeftKnee
			{
				OFFSET 2.20856 -6.06797 0.00000
				CHANNELS 3 Zrotation Yrotation Xrotation
				JOINT LeftAnkle
				{
					OFFSET 2.62924 -7.22379 0.00000
					CHANNELS 3 Zrotation Yrotation Xrotation
					JOINT LeftToe
					{
						OFFSET 0.16802 -0.46163 2.41673
						CHANNELS 3 Zrotation Yrotation Xrotation
						End Site
						{
							OFFSET 0.00000 -0.00000 1.23760
						}
					}
				}
			}
		}
	}
	JOINT RHipJoint
	{
		OFFSET 0 0 0
		CHANNELS 3 Zrotation Yrotation Xrotation
		JOINT RightHip
		{
			OFFSET -1.56796 -1.59570 0.95625
			CHANNELS 3 Zrotation Yrotation Xrotation
			JOINT RightKnee
			{
				OFFSET -2.29239 -6.29829 0.00000
				CHANNELS 3 Zrotation Yrotation Xrotation
				JOINT RightAnkle
				{
					OFFSET -2.66963 -7.33475 0.00000
					CHANNELS 3 Zrotation Yrotation Xrotation
					JOINT RightToe
					{
						OFFSET -0.18185 -0.49964 2.34359
						CHANNELS 3 Zrotation Yrotation Xrotation
						End Site
						{
							OFFSET -0.00000 -0.00000 1.20477
						}
					}
				}
			}
		}
	}
	JOINT lowerback
	{
		OFFSET 0 0 0
		CHANNELS 3 Zrotation Yrotation Xrotation
		JOINT Chest
		{
			OFFSET 0.03505 2.15832 -0.34324
			CHANNELS 3 Zrotation Yrotation Xrotation
			JOINT Chest2
			{
				OFFSET -0.01089 2.17963 0.04689
				CHANNELS 3 Zrotation Yrotation Xrotation
				JOINT lowerneck
				{
					OFFSET 0 0 0
					CHANNELS 3 Zrotation Yrotation Xrotation
					JOINT Neck
					{
						OFFSET 0.04686 1.69404 0.22159
						CHANNELS 3 Zrotation Yrotation Xrotation
						JOINT Head
						{
							OFFSET 0.00265 1.69305 -0.01513
							CHANNELS 3 Zrotation Yrotation Xrotation
							End Site
							{
								OFFSET -0.00415 1.80215 -0.03034
							}
						}
					}
				}
				JOINT LeftCollar
				{
					OFFSET 0 0 0
					CHANNELS 3 Zrotation Yrotation Xrotation
					JOINT LeftShoulder
					{
						OFFSET 3.67184 1.11724 -0.19002
CHANNELS 3 Zrotation Xrotation Yrotation
						JOINT LeftElbow
						{
OFFSET 0 -5.177140 -0.000000
CHANNELS 3 Zrotation Xrotation Yrotation
							JOINT LeftWrist
							{
OFFSET 0 -3.436790 -0.000000
CHANNELS 3 Zrotation Xrotation Yrotation
								JOINT lhand
								{
									OFFSET 0 0 0
CHANNELS 3 Zrotation Xrotation Yrotation
									JOINT LFingers
									{
OFFSET 0 -0.573120 -0.000000
CHANNELS 3 Zrotation Xrotation Yrotation
										End Site
										{
OFFSET 0 -0.462060 -0.000000
										}
									}
								}
								JOINT LThumb
								{
OFFSET 0 0.000000 0.000000
CHANNELS 3 Zrotation Xrotation Yrotation
									End Site
									{
OFFSET 0 -0.469120 0.469120
									}
								}
							}
						}
					}
				}
				JOINT RightCollar
				{
					OFFSET 0 0 0
					CHANNELS 3 Zrotation Yrotation Xrotation
					JOINT RightShoulder
					{
						OFFSET -3.59596 0.95831 -0.26050
CHANNELS 3 Zrotation Xrotation Yrotation
						JOINT RightElbow
						{
OFFSET 0 -5.239080 -0.000000
CHANNELS 3 Zrotation Xrotation Yrotation
							JOINT RightWrist
							{
OFFSET 0 -3.464850 -0.000000
CHANNELS 3 Zrotation Xrotation Yrotation
								JOINT rhand
								{
									OFFSET 0 0 0
CHANNELS 3 Zrotation Xrotation Yrotation
									JOINT RFingers
									{
OFFSET 0 -0.608750 -0.000000
CHANNELS 3 Zrotation Xrotation Yrotation
										End Site
										{
OFFSET 0 -0.490790 -0.000000
										}
									}
								}
								JOINT RThumb
								{
OFFSET 0 0.000000 0.000000
CHANNELS 3 Zrotation Xrotation Yrotation
									End Site
									{
OFFSET 0 -0.498290 0.498290
									}
								}
							}
						}
					}
				}
			}
		}
	}
}
MOTION
Frames: 11
Frame Time: 0.008333333333333333
5.390471 16.268842 -7.259361 -219.443856 -119.529963 210.275073 0.000000 0.000000 0.000000 15.156568 14.371821 -63.830421 17.828942 19.886603 83.640759 3.365363 7.653684 33.339602 1.053541 6.526372 18.319649 0.000000 0.000000 0.000000 43.899917 -14.342463 1.184959 -0.625826 -5.058466 14.076125 -0.813600 -15.082604 -28.341726 -0.032412 -1.161518 3.193411 2.818588 -0.998840 9.584633 -1.613380 -1.144546 1.788119 -3.121066 -0.621957 -3.600263 3.164916 1.722857 -3.953130 17.161976 3.263233 -11.704953 4.698067 0.703824 -3.032764 0.000000 0.000000 0.000000 36.703653 -53.452986 14.045818 93.079950 -59.933984 62.665891 47.297244 -81.028632 -21.490311 0.000000 0.000000 0.000000 -7.125000 0.000000 0.000000 22.052103 58.731792 -7.643268 0.000000 0.000000 0.000000 -26.947899 3.725853 -14.182068 -42.395260 -49.410279 -20.245200 -46.450718 -46.103463 24.430155 0.000000 0.000000 0.000000 7.125000 0.000000 0.000000 -21.757021 62.066959 9.270880
5.403040 16.259137 -7.314595 -218.279104 -119.390499 209.490741 0.000000 0.000000 0.000000 14.622640 13.432981 -64.066831 17.663469 19.868552 83.154040 3.223995 7.243594 32.631951 1.033758 6.466948 18.145451 0.000000 0.000000 0.000000 43.676034 -13.586126 -0.185298 -0.805909 -5.725277 15.990384 -0.937470 -15.074093 -29.204798 -0.038543 -1.266367 3.482009 1.414455 -1.044350 10.062839 -1.291829 -1.327547 1.585071 -1.961004 -0.699770 -4.053152 3.217882 2.055927 -3.732631 16.370189 3.750521 -12.134209 4.433008 0.934304 -3.226613 0.000000 0.000000 0.000000 33.538026 -51.923701 11.366117 102.621106 -59.358941 70.904738 46.912630 -85.031628 -20.697741 0.000000 0.000000 0.000000 -7.125000 0.000000 0.000000 21.278888 57.633044 -6.785481 0.000000 0.000000 0.000000 -26.482869 2.299492 -15.499910 -47.061799 -51.720882 -23.852139 -45.963723 -50.794043 23.864860 0.000000 0.000000 0.000000 7.125000 0.000000 0.000000 -20.875026 61.238300 8.463473
5.413136 16.241328 -7.356420 -217.366135 -119.232755 208.906858 0.000000 0.000000 0.000000 14.237779 12.471833 -63.943524 17.443807 19.842504 82.507393 3.087034 7.162283 31.902650 1.067524 6.568501 18.443085 0.000000 0.000000 0.000000 43.443011 -13.006284 -1.547024 -1.010931 -6.394524 17.934498 -1.080886 -14.862718 -29.971740 -0.042806 -1.335446 3.672254 0.362940 -1.093241 10.422596 -1.041786 -1.493671 1.418264 -1.077776 -0.766023 -4.401378 3.494766 2.376195 -3.521539 15.366923 4.173190 -12.422968 4.062778 1.145686 -3.361943 0.000000 0.000000 0.000000 30.763206 -50.261374 8.920470 111.397756 -58.171417 78.414292 46.410074 -87.941002 -20.830729 0.000000 0.000000 0.000000 -7.125000 0.000000 0.000000 20.652378 57.654016 -6.583605 0.000000 0.000000 0.000000 -25.713643 0.992160 -16.345943 -52.302057 -53.863152 -28.028315 -44.827014 -55.118485 23.810152 0.000000 0.000000 0.000000 7.125000 0.000000 0.000000 -19.238476 60.834283 7.586322
5.421023 16.216341 -7.385592 -216.837808 -119.056240 208.636290 0.000000 0.000000 0.000000 14.032924 11.602443 -63.521639 17.187138 19.809091 81.750533 2.991913 7.112777 31.386603 1.095078 6.649693 18.681609 0.000000 0.000000 0.000000 43.254526 -12.599024 -2.755472 -1.216462 -6.993802 19.697894 -1.216414 -14.492645 -30.516121 -0.045100 -1.371219 3.770784 -0.363594 -1.196663 10.563414 -0.853106 -1.704424 1.338571 -0.438986 -0.855945 -4.540772 4.021645 2.775581 -3.299584 14.312850 4.674816 -12.605619 3.633201 1.394411 -3.461630 0.000000 0.000000 0.000000 28.632980 -48.423259 6.822789 118.849841 -56.585960 84.695480 45.111671 -91.867990 -20.506775 0.000000 0.000000 0.000000 -7.125000 0.000000 0.000000 18.901332 56.888802 -5.656794 0.000000 0.000000 0.000000 -24.589251 -0.262911 -16.631079 -58.323115 -55.824523 -32.954579 -44.290544 -58.573341 23.959600 0.000000 0.000000 0.000000 7.125000 0.000000 0.000000 -18.512867 60.855479 7.295916
5.428253 16.182880 -7.401505 -216.907793 -118.874037 208.871215 0.000000 0.000000 0.000000 14.092816 10.930545 -62.827142 16.899943 19.767852 80.902274 2.933981 6.790668 31.098136 1.072284 6.582596 18.484573 0.000000 0.000000 0.000000 43.227252 -12.285915 -3.759463 -1.410795 -7.511284 21.239811 -1.335442 -14.031045 -30.866221 -0.045839 -1.381146 3.798235 -0.634704 -1.318261 10.571441 -0.710552 -1.889565 1.317456 -0.111370 -0.941134 -4.555192 4.721843 3.198093 -3.169533 13.293777 5.163050 -12.554605 3.269798 1.650979 -3.553530 0.000000 0.000000 0.000000 26.931179 -46.474140 4.791100 125.562206 -54.613946 90.237617 43.891770 -95.233605 -20.114863 0.000000 0.000000 0.000000 -7.125000 0.000000 0.000000 17.286027 56.073857 -4.798383 0.000000 0.000000 0.000000 -23.202953 -1.430815 -16.470868 -65.201794 -57.522930 -38.705146 -44.351955 -61.536298 24.195231 0.000000 0.000000 0.000000 7.125000 0.000000 0.000000 -18.645033 61.155887 7.484351
5.434323 16.148841 -7.404085 -217.281816 -118.652092 209.305456 0.000000 0.000000 0.000000 14.192539 10.449823 -61.806324 16.571766 19.715565 79.930527 2.883959 6.332077 30.869780 1.017212 6.416172 17.997096 0.000000 0.000000 0.000000 43.219773 -12.070380 -4.521778 -1.588808 -7.950153 22.563331 -1.430461 -13.585638 -31.081153 -0.043128 -1.340180 3.685326 -0.666116 -1.442471 10.580080 -0.585303 -2.051549 1.304850 0.060199 -1.019255 -4.567251 5.508549 3.606337 -3.092000 12.260702 5.585822 -12.229186 3.070629 1.901794 -3.751324 0.000000 0.000000 0.000000 25.034811 -44.534055 2.692427 131.560887 -52.322038 95.060525 42.286299 -97.773381 -20.054678 0.000000 0.000000 0.000000 -7.125000 0.000000 0.000000 15.329385 55.582658 -4.053972 0.000000 0.000000 0.000000 -21.767229 -2.407746 -15.781608 -72.742909 -58.819562 -45.116528 -44.824266 -63.664805 24.680777 0.000000 0.000000 0.000000 7.125000 0.000000 0.000000 -19.426006 61.875973 8.149098
5.436367 16.118886 -7.394180 -217.799077 -118.263673 209.852684 0.000000 0.000000 0.000000 14.131226 10.234735 -60.468381 16.193658 19.648711 78.808031 2.808424 6.029987 30.477782 1.005611 6.381052 17.894037 0.000000 0.000000 0.000000 43.117989 -11.827257 -5.021448 -1.741903 -8.305807 23.647246 -1.509693 -13.122231 -31.188794 -0.041022 -1.306557 3.592778 -0.660552 -1.524555 10.569317 -0.466104 -2.153409 1.244953 0.196286 -1.067855 -4.618909 6.154346 4.014711 -2.736255 11.550286 6.117717 -12.222976 2.685687 2.152855 -3.782237 0.000000 0.000000 0.000000 23.260629 -42.278512 0.502535 136.694312 -49.894684 99.060829 40.424649 -99.752811 -20.272393 0.000000 0.000000 0.000000 -7.125000 0.000000 0.000000 13.140322 55.378733 -3.392454 0.000000 0.000000 0.000000 -20.410450 -3.116852 -14.526682 -80.531977 -59.640571 -51.811155 -44.911152 -65.705742 25.039296 0.000000 0.000000 0.000000 7.125000 0.000000 0.000000 -19.624194 62.329093 8.440191
5.434723 16.096667 -7.370989 -218.594835 -117.664339 210.603351 0.000000 0.000000 0.000000 13.966503 10.330206 -58.766137 15.766830 19.564353 77.535979 2.716770 5.871092 29.970586 0.982591 6.309656 17.685492 0.000000 0.000000 0.000000 42.932859 -11.562443 -5.193799 -1.864451 -8.577394 24.482274 -1.552451 -12.727160 -31.131328 -0.034828 -1.204362 3.311281 -0.609945 -1.581707 10.557836 -0.311985 -2.215211 1.162691 0.338224 -1.096891 -4.693874 6.758276 4.468386 -2.294742 10.803549 6.716549 -12.155145 2.295860 2.444696 -3.800979 0.000000 0.000000 0.000000 21.754565 -39.591150 -1.802464 140.946877 -47.483108 102.257104 38.273921 -101.450742 -20.389737 0.000000 0.000000 0.000000 -7.125000 0.000000 0.000000 10.651597 54.999878 -2.640538 0.000000 0.000000 0.000000 -19.316121 -3.674851 -12.603415 -88.421566 -59.968179 -58.633490 -44.675398 -67.464423 25.306442 0.000000 0.000000 0.000000 7.125000 0.000000 0.000000 -19.333223 62.575761 8.422593
5.431779 16.078917 -7.337671 -219.712900 -116.915018 211.657287 0.000000 0.000000 0.000000 13.769815 10.609751 -56.791969 15.294008 19.460033 76.120544 2.604093 5.909383 29.306687 1.037316 6.477148 18.175428 0.000000 0.000000 0.000000 42.731740 -11.184118 -5.107011 -1.951354 -8.763990 25.059792 -1.571679 -12.366541 -30.960685 -0.030439 -1.125073 3.093005 -0.504173 -1.626628 10.490420 -0.100810 -2.251183 1.089159 0.502846 -1.114202 -4.728250 7.434196 4.945954 -1.887566 9.827205 7.321581 -12.029494 1.818819 2.754275 -3.768482 0.000000 0.000000 0.000000 20.162607 -36.838706 -4.103097 144.694185 -45.018721 104.967162 36.040367 -101.647981 -21.427651 0.000000 0.000000 0.000000 -7.125000 0.000000 0.000000 8.055706 55.687525 -2.120493 0.000000 0.000000 0.000000 -18.416614 -4.282270 -10.207008 -95.718510 -59.862355 -64.949557 -42.984967 -69.577646 25.000727 0.000000 0.000000 0.000000 7.125000 0.000000 0.000000 -16.847217 61.712436 6.963191
5.427339 16.067686 -7.295479 -221.067154 -116.084835 212.975598 0.000000 0.000000 0.000000 13.535703 10.968154 -54.664583 14.789431 19.335532 74.601127 2.475957 5.722766 28.564222 0.976047 6.289116 17.625697 0.000000 0.000000 0.000000 42.520917 -10.705126 -4.870837 -2.009129 -8.885003 25.436274 -1.570189 -12.062453 -30.709048 -0.025750 -1.035801 2.847407 -0.300627 -1.664079 10.369712 0.139219 -2.264498 0.996772 0.638133 -1.121950 -4.755403 8.022573 5.464405 -1.556806 8.816053 7.965576 -11.830666 1.353216 3.099019 -3.687747 0.000000 0.000000 0.000000 18.695314 -33.854250 -6.523062 147.838716 -42.663748 107.145892 33.207528 -101.788170 -22.342844 0.000000 0.000000 0.000000 -7.125000 0.000000 0.000000 4.736301 56.078187 -1.286999 0.000000 0.000000 0.000000 -17.683386 -4.771746 -7.480379 -102.587380 -59.375420 -70.877009 -40.843725 -70.693943 25.251366 0.000000 0.000000 0.000000 7.125000 0.000000 0.000000 -13.904951 61.389121 5.611108
5.419557 16.059644 -7.245218 -222.656816 -115.281336 214.586135 0.000000 0.000000 0.000000 13.354081 11.312904 -52.499312 14.276482 19.195241 73.046686 2.351637 5.717690 27.800691 0.937629 6.161523 17.255735 0.000000 0.000000 0.000000 42.364911 -10.142409 -4.628216 -2.056967 -8.983698 25.744323 -1.557608 -11.802181 -30.422469 -0.021696 -0.951085 2.614252 -0.038365 -1.711804 10.155590 0.458040 -2.281925 0.901544 0.819575 -1.132824 -4.732317 8.615046 6.017347 -1.227328 7.643833 8.649672 -11.677556 0.840782 3.469769 -3.604488 0.000000 0.000000 0.000000 17.308141 -30.653215 -9.024852 150.469376 -40.482011 108.894273 29.874240 -102.196475 -23.091237 0.000000 0.000000 0.000000 -7.125000 0.000000 0.000000 0.865733 56.160650 -0.236858 0.000000 0.000000 0.000000 -17.203401 -5.240083 -4.534555 -108.748588 -58.619777 -76.160541 -37.509040 -72.060716 25.473702 0.000000 0.000000 0.000000 7.125000 0.000000 0.000000 -9.499569 60.720675 3.667606
